<svg enable-background="new 0 0 496 496" viewBox="0 0 496 496" xmlns="http://www.w3.org/2000/svg"><path d="m402.524 432-18.52-55.568c-6.472-19.4-22.984-33.72-43.112-37.384l-53.464-9.728v-4.144c9.304-5.4 17.4-12.624 23.848-21.176h16.152c13.232 0 24-10.768 24-24v-96c0-57.344-46.656-104-104-104s-104 46.656-104 104v56c0 15.424 10.968 28.328 25.512 31.336 4.488 22.992 18.856 42.448 38.488 53.84v4.144l-53.472 9.728c-20.12 3.664-36.64 17.984-43.104 37.384l-3.2 9.608-27.248-27.248c-3.12-3.12-3.12-8.2 0-11.32l31.6-31.592-59.312-59.312-35.712 35.712c-10.576 10.576-16.4 24.64-16.4 39.6s5.824 29.016 16.4 39.592l108.12 108.12c10.576 10.576 24.64 16.408 39.6 16.408s29.016-5.832 39.344-16.168l38.968-35.704-12.152-12.128zm-67.096-152c0 4.416-3.592 8-8 8h-6.728c2.32-5.288 4.08-10.864 5.216-16.664 3.424-.712 6.576-2.072 9.512-3.784zm-8-26.224v-27.552c4.76 2.776 8 7.88 8 13.776s-3.24 11-8 13.776zm-160 0c-4.76-2.776-8-7.88-8-13.776s3.24-11 8-13.776zm0-53.776v9.136c-2.848.744-5.52 1.864-8 3.312v-28.448c0-48.52 39.48-88 88-88s88 39.48 88 88v28.448c-2.48-1.448-5.152-2.576-8-3.312v-9.136h-8c-23.656 0-45.896-9.216-62.632-25.944l-9.368-9.368-9.368 9.368c-16.736 16.728-38.976 25.944-62.632 25.944zm16 56v-40.304c24.024-1.808 46.424-11.72 64-28.432 17.576 16.712 39.976 26.632 64 28.432v40.304c0 11.664-3.184 22.576-8.656 32h-55.344v16h42.192c-11.28 9.928-26.024 16-42.192 16-35.288 0-64-28.712-64-64zm88 76.312v.376l-24 24-24-24v-.376c7.584 2.384 15.64 3.688 24 3.688s16.416-1.304 24-3.688zm-145.408 49.176c4.616-13.856 16.416-24.088 30.792-26.712l55.92-10.16 34.696 34.696 34.688-34.688 55.912 10.16c14.376 2.624 26.176 12.848 30.792 26.712l11.512 34.504h-165.472l-31.16-31.16-34.624 31.32c-3.016 3.032-8.288 3.032-11.312 0l-17.472-17.472zm-73.336-102.296 36.688 36.688-8.688 8.688-36.688-36.688zm140.28 189.104c-7.552 7.536-17.6 11.704-28.28 11.704s-20.728-4.168-28.288-11.72l-108.12-108.112c-7.552-7.552-11.712-17.6-11.712-28.28 0-10.688 4.16-20.736 11.712-28.288l4.4-4.4 36.688 36.688-.288.288c-9.352 9.36-9.352 24.584 0 33.944l57.368 57.368c4.536 4.528 10.56 7.032 16.976 7.032s12.44-2.496 16.68-6.752l.6-.536 36.856 36.856zm16.4-15.04-36.776-36.776 10.568-9.552 36.712 36.712z"/><path d="m471.428 0h-112c-13.232 0-24 10.768-24 24v64c0 13.232 10.768 24 24 24h21.368l-8.272 48.248 77.2-48.248h21.704c13.232 0 24-10.768 24-24v-64c0-13.232-10.768-24-24-24zm8 88c0 4.408-3.592 8-8 8h-26.296l-50.808 31.752 5.448-31.752h-40.344c-4.408 0-8-3.592-8-8v-64c0-4.408 3.592-8 8-8h112c4.408 0 8 3.592 8 8z"/><path d="m367.428 32h96v16h-96z"/><path d="m367.428 64h64v16h-64z"/><path d="m447.428 64h16v16h-16z"/><path d="m247.428 24c-104.528 0-194.568 72.304-217.976 173.16l-15.16-25.272-13.72 8.232 28.12 46.856 46.856-28.12-8.232-13.72-21.68 13.008c22.672-92.264 105.64-158.144 201.792-158.144 21.016 0 41.752 3.12 61.632 9.28l4.736-15.28c-21.416-6.64-43.744-10-66.368-10z"/><path d="m491.54 177.136-46.856-28.12-28.112 46.864 13.72 8.232 14-23.336c7.368 21.56 11.136 44.112 11.136 67.224 0 47.576-16.48 94.088-46.392 130.96l12.424 10.08c32.224-39.712 49.968-89.808 49.968-141.04 0-24.472-3.944-48.368-11.632-71.248l23.512 14.104z"/></svg>